<svg xmlns="http://www.w3.org/2000/svg" viewBox="0 0 64 54"><path d="M63.76 38.09l-5.56-10.4a2.55 2.55 0 0 0-.27-.4 2 2 0 0 0-2.83-.14l-8.7 7.83a2.008 2.008 0 0 0 2.67 3l4.24-3.81a22.25 22.25 0 0 1-42.16 1.39 2 2 0 1 0-3.72 1.45 26.32 26.32 0 0 0 24.57 17 26.6 26.6 0 0 0 25.37-19.39l2.86 5.37A2 2 0 0 0 62 41.05a2 2 0 0 0 1.76-2.95zM8.92 26.85l8.7-7.83a2 2 0 0 0-1.34-3.48 2 2 0 0 0-1.33.51l-4.24 3.81a22.25 22.25 0 0 1 42.16-1.39 2 2 0 1 0 3.72-1.45 26.32 26.32 0 0 0-24.57-17A26.61 26.61 0 0 0 6.65 19.41l-2.87-5.37a2 2 0 0 0-3.52 1.88l5.56 10.41a2.55 2.55 0 0 0 .27.4 2 2 0 0 0 2.83.12z" fill="#231f20"/></svg>