<svg data-name="shopping and biz" xmlns="http://www.w3.org/2000/svg" viewBox="0 0 64 60"><path d="M62 56H2a2 2 0 1 0 0 4h60a2 2 0 0 0 0-4zM6 36a6.16 6.16 0 0 0 1.3-.14l6 8.41a6 6 0 1 0 8.86-.57l7.35-25.72h.48a6 6 0 0 0 1.35-.16l7.92 10.48a6 6 0 1 0 9.31-.19l8.3-16.24a5.91 5.91 0 0 0 1.12.11 6 6 0 1 0-4.58-2.13l-8.29 16.24a6 6 0 0 0-1.13-.11 6.08 6.08 0 0 0-1.35.16l-7.92-10.48a6 6 0 1 0-8.9.63l-7.34 25.72a4 4 0 0 0-.49 0 5.49 5.49 0 0 0-1.29.15l-6-8.42a5.94 5.94 0 0 0 1.31-3.73 6 6 0 1 0-6 6zm38-2a2 2 0 1 1 2-2 2 2 0 0 1-2 2zM58 4a2 2 0 1 1-2 2 2 2 0 0 1 2-2zm-28 6a2 2 0 1 1-2 2 2 2 0 0 1 2-2zM18 50a2 2 0 0 1-2-2 2 2 0 0 1 .48-1.29l.81-.57A1.87 1.87 0 0 1 18 46a2 2 0 0 1 0 4zM6 28a2 2 0 0 1 2 2 2 2 0 0 1-.48 1.29l-.81.58A2.08 2.08 0 0 1 6 32a2 2 0 1 1 0-4z"/></svg>