<svg xmlns="http://www.w3.org/2000/svg" xmlns:xlink="http://www.w3.org/1999/xlink"><symbol id="sprite-icon-features" viewBox="0 0 64 52">
  <path d="M5177,1123h44a2,2,0,0,0,0-4h-44a2,2,0,0,0,0,4Z" transform="translate(-5159 -1115)"/>
  <path d="M5221,1139h-44a2,2,0,0,0,0,4h44a2,2,0,0,0,0-4Z" transform="translate(-5159 -1115)"/>
  <path d="M5221,1159h-44a2,2,0,0,0,0,4h44a2,2,0,0,0,0-4Z" transform="translate(-5159 -1115)"/>
  <path d="M5169,1135h-8a2,2,0,0,0-2,2v8a2,2,0,0,0,2,2h8a2,2,0,0,0,2-2v-8A2,2,0,0,0,5169,1135Zm-2,8h-4v-4h4Z" transform="translate(-5159 -1115)"/>
  <path d="M5169,1115h-8a2,2,0,0,0-2,2v8a2,2,0,0,0,2,2h8a2,2,0,0,0,2-2v-8A2,2,0,0,0,5169,1115Zm-2,8h-4v-4h4Z" transform="translate(-5159 -1115)"/>
  <path d="M5169,1155h-8a2,2,0,0,0-2,2v8a2,2,0,0,0,2,2h8a2,2,0,0,0,2-2v-8A2,2,0,0,0,5169,1155Zm-2,8h-4v-4h4Z" transform="translate(-5159 -1115)"/>
</symbol><symbol id="sprite-icon-life" viewBox="0 0 63.99 29">
  <path d="M780.85,890.25a14.47,14.47,0,0,0-20.49,0h0L743,907.92h0a10.48,10.48,0,0,1-14.82,0,10.53,10.53,0,0,1,0-14.86,10.48,10.48,0,0,1,14.82,0l0,0,0,0,3.7,3.34a2,2,0,0,0,2.82-.14,2,2,0,0,0-.14-2.82l-3.69-3.34,0,0a14.5,14.5,0,1,0,.09,20.59h0l17.37-17.66h0a10.48,10.48,0,0,1,14.82,0,10.55,10.55,0,0,1,0,14.86,10.49,10.49,0,0,1-14.83,0l0,0,0,0-3.69-3.34a2,2,0,1,0-2.68,3l3.69,3.34,0,0a14.46,14.46,0,0,0,20.39-.09A14.53,14.53,0,0,0,780.85,890.25Z" transform="translate(-721.09 -886)"/>
</symbol><symbol id="sprite-icon-power" viewBox="0 0 34 64">
  <path d="M1823,6692a1.91,1.91,0,0,1-.84-.19,2,2,0,0,1-1.12-2.19l3.38-17.62H1820a2,2,0,0,1-1.84-2.78l5.58-13.22H1818a2,2,0,0,1-1.6-.8,2,2,0,0,1-.32-1.76l7-24A2,2,0,0,1,1825,6628h23a2,2,0,0,1,1.75,3l-8.35,15h5.6a2,2,0,0,1,1.71,3l-7.9,13H1844a2,2,0,0,1,1.56,3.26l-21,26A2,2,0,0,1,1823,6692Zm0-24h3.84a2,2,0,0,1,2,2.38l-2.33,12.13,13.33-16.51h-2.56a2,2,0,0,1-1.71-3l7.9-13H1838a2,2,0,0,1-1.72-1,2,2,0,0,1,0-2l8.35-15h-18.1l-5.83,20h6.08a2,2,0,0,1,1.84,2.78Z" transform="translate(-1816 -6628)"/>
</symbol><symbol id="sprite-icon-specs" viewBox="0 0 64 60">
  <path d="M3980.8,5127h-60a2,2,0,1,0,0,4h60a2,2,0,0,0,0-4Z" transform="translate(-3918.8 -5071)"/>
  <path d="M3924.8,5107a6.16,6.16,0,0,0,1.3-.14l6,8.41a6,6,0,1,0,8.86-.57l7.35-25.72.48,0a6,6,0,0,0,1.35-.16l7.92,10.48a6,6,0,1,0,9.31-.19l8.3-16.24a5.91,5.91,0,0,0,1.12.11,6,6,0,1,0-4.58-2.13l-8.29,16.24a6,6,0,0,0-1.13-.11,6.08,6.08,0,0,0-1.35.16l-7.92-10.48a6,6,0,1,0-8.9.63l-7.34,25.72a4,4,0,0,0-.49,0,5.49,5.49,0,0,0-1.29.15l-6-8.42a5.94,5.94,0,0,0,1.31-3.73,6,6,0,1,0-6,6Zm38-2a2,2,0,1,1,2-2A2,2,0,0,1,3962.8,5105Zm14-30a2,2,0,1,1-2,2A2,2,0,0,1,3976.8,5075Zm-28,6a2,2,0,1,1-2,2A2,2,0,0,1,3948.8,5081Zm-12,40a2,2,0,0,1-2-2,2,2,0,0,1,.48-1.29l.81-.57a1.87,1.87,0,0,1,.71-.14,2,2,0,0,1,0,4Zm-12-22a2,2,0,0,1,2,2,2,2,0,0,1-.48,1.29l-.81.58a2.08,2.08,0,0,1-.71.13,2,2,0,1,1,0-4Z" transform="translate(-3918.8 -5071)"/>
</symbol><symbol id="sprite-icon-speed" viewBox="0 0 64 58">
  <path d="M5313,2108.29V2092a2,2,0,0,0-4,0v16.3a7,7,0,1,0,4,0Zm.12,8.84a3,3,0,1,1,0-4.25A3,3,0,0,1,5313.12,2117.13Z" transform="translate(-5279 -2072)"/>
  <path d="M5311,2086a2,2,0,0,0,2-2v-4a2,2,0,0,0-4,0v4A2,2,0,0,0,5311,2086Z" transform="translate(-5279 -2072)"/>
  <path d="M5291,2102h-4a2,2,0,0,0,0,4h4a2,2,0,0,0,0-4Z" transform="translate(-5279 -2072)"/>
  <path d="M5335,2102h-4a2,2,0,0,0,0,4h4a2,2,0,0,0,0-4Z" transform="translate(-5279 -2072)"/>
  <path d="M5329.38,2085.62a2,2,0,0,0-2.82,0l-2.83,2.83a2,2,0,1,0,2.83,2.83l2.82-2.83A2,2,0,0,0,5329.38,2085.62Z" transform="translate(-5279 -2072)"/>
  <path d="M5295.44,2085.62a2,2,0,1,0-2.82,2.82l2.82,2.83a2,2,0,0,0,1.42.59,2,2,0,0,0,1.41-3.42Z" transform="translate(-5279 -2072)"/>
  <path d="M5311,2072a32,32,0,0,0-19.2,57.6,2,2,0,0,0,1.2.4h36a2,2,0,0,0,1.2-.4A32,32,0,0,0,5311,2072Zm17.32,54h-34.64a28,28,0,1,1,34.64,0Z" transform="translate(-5279 -2072)"/>
</symbol></svg>