<svg xmlns="http://www.w3.org/2000/svg" viewBox="0 0 64 58"><path d="M34 36.29V20a2 2 0 0 0-4 0v16.3a7 7 0 1 0 4 0zm.12 8.84a3 3 0 1 1 0-4.25 3 3 0 0 1 0 4.25zM32 14a2 2 0 0 0 2-2V8a2 2 0 0 0-4 0v4a2 2 0 0 0 2 2zM12 30H8a2 2 0 0 0 0 4h4a2 2 0 0 0 0-4zm44 0h-4a2 2 0 0 0 0 4h4a2 2 0 0 0 0-4zm-5.62-16.38a2 2 0 0 0-2.82 0l-2.83 2.83a2.001 2.001 0 1 0 2.83 2.83l2.82-2.83a2 2 0 0 0 0-2.83zm-33.94 0a2 2 0 1 0-2.82 2.82l2.82 2.83a2 2 0 0 0 1.42.59 2 2 0 0 0 1.41-3.42z"/><path d="M32 0a32 32 0 0 0-19.2 57.6 2 2 0 0 0 1.2.4h36a2 2 0 0 0 1.2-.4A32 32 0 0 0 32 0zm17.32 54H14.68a28 28 0 1 1 34.64 0z"/></svg>