<svg id="transport" xmlns="http://www.w3.org/2000/svg" viewBox="0 0 64 58">
  <path d="M5313,2108.29V2092a2,2,0,0,0-4,0v16.3a7,7,0,1,0,4,0Zm.12,8.84a3,3,0,1,1,0-4.25A3,3,0,0,1,5313.12,2117.13Z" transform="translate(-5279 -2072)"/>
  <path d="M5311,2086a2,2,0,0,0,2-2v-4a2,2,0,0,0-4,0v4A2,2,0,0,0,5311,2086Z" transform="translate(-5279 -2072)"/>
  <path d="M5291,2102h-4a2,2,0,0,0,0,4h4a2,2,0,0,0,0-4Z" transform="translate(-5279 -2072)"/>
  <path d="M5335,2102h-4a2,2,0,0,0,0,4h4a2,2,0,0,0,0-4Z" transform="translate(-5279 -2072)"/>
  <path d="M5329.38,2085.62a2,2,0,0,0-2.82,0l-2.83,2.83a2,2,0,1,0,2.83,2.83l2.82-2.83A2,2,0,0,0,5329.38,2085.62Z" transform="translate(-5279 -2072)"/>
  <path d="M5295.44,2085.62a2,2,0,1,0-2.82,2.82l2.82,2.83a2,2,0,0,0,1.42.59,2,2,0,0,0,1.41-3.42Z" transform="translate(-5279 -2072)"/>
  <path d="M5311,2072a32,32,0,0,0-19.2,57.6,2,2,0,0,0,1.2.4h36a2,2,0,0,0,1.2-.4A32,32,0,0,0,5311,2072Zm17.32,54h-34.64a28,28,0,1,1,34.64,0Z" transform="translate(-5279 -2072)"/>
</svg>
