<svg id="shopping_and_biz" data-name="shopping and biz" xmlns="http://www.w3.org/2000/svg" viewBox="0 0 64 60">
  <path d="M3980.8,5127h-60a2,2,0,1,0,0,4h60a2,2,0,0,0,0-4Z" transform="translate(-3918.8 -5071)"/>
  <path d="M3924.8,5107a6.16,6.16,0,0,0,1.3-.14l6,8.41a6,6,0,1,0,8.86-.57l7.35-25.72.48,0a6,6,0,0,0,1.35-.16l7.92,10.48a6,6,0,1,0,9.31-.19l8.3-16.24a5.91,5.91,0,0,0,1.12.11,6,6,0,1,0-4.58-2.13l-8.29,16.24a6,6,0,0,0-1.13-.11,6.08,6.08,0,0,0-1.35.16l-7.92-10.48a6,6,0,1,0-8.9.63l-7.34,25.72a4,4,0,0,0-.49,0,5.49,5.49,0,0,0-1.29.15l-6-8.42a5.94,5.94,0,0,0,1.31-3.73,6,6,0,1,0-6,6Zm38-2a2,2,0,1,1,2-2A2,2,0,0,1,3962.8,5105Zm14-30a2,2,0,1,1-2,2A2,2,0,0,1,3976.8,5075Zm-28,6a2,2,0,1,1-2,2A2,2,0,0,1,3948.8,5081Zm-12,40a2,2,0,0,1-2-2,2,2,0,0,1,.48-1.29l.81-.57a1.87,1.87,0,0,1,.71-.14,2,2,0,0,1,0,4Zm-12-22a2,2,0,0,1,2,2,2,2,0,0,1-.48,1.29l-.81.58a2.08,2.08,0,0,1-.71.13,2,2,0,1,1,0-4Z" transform="translate(-3918.8 -5071)"/>
</svg>
