<svg id="arrows" xmlns="http://www.w3.org/2000/svg" viewBox="0 0 63.99 29">
  <path d="M780.85,890.25a14.47,14.47,0,0,0-20.49,0h0L743,907.92h0a10.48,10.48,0,0,1-14.82,0,10.53,10.53,0,0,1,0-14.86,10.48,10.48,0,0,1,14.82,0l0,0,0,0,3.7,3.34a2,2,0,0,0,2.82-.14,2,2,0,0,0-.14-2.82l-3.69-3.34,0,0a14.5,14.5,0,1,0,.09,20.59h0l17.37-17.66h0a10.48,10.48,0,0,1,14.82,0,10.55,10.55,0,0,1,0,14.86,10.49,10.49,0,0,1-14.83,0l0,0,0,0-3.69-3.34a2,2,0,1,0-2.68,3l3.69,3.34,0,0a14.46,14.46,0,0,0,20.39-.09A14.53,14.53,0,0,0,780.85,890.25Z" transform="translate(-721.09 -886)"/>
</svg>
