<svg id="unsorted" xmlns="http://www.w3.org/2000/svg" viewBox="0 0 34 64">
  <path d="M1823,6692a1.91,1.91,0,0,1-.84-.19,2,2,0,0,1-1.12-2.19l3.38-17.62H1820a2,2,0,0,1-1.84-2.78l5.58-13.22H1818a2,2,0,0,1-1.6-.8,2,2,0,0,1-.32-1.76l7-24A2,2,0,0,1,1825,6628h23a2,2,0,0,1,1.75,3l-8.35,15h5.6a2,2,0,0,1,1.71,3l-7.9,13H1844a2,2,0,0,1,1.56,3.26l-21,26A2,2,0,0,1,1823,6692Zm0-24h3.84a2,2,0,0,1,2,2.38l-2.33,12.13,13.33-16.51h-2.56a2,2,0,0,1-1.71-3l7.9-13H1838a2,2,0,0,1-1.72-1,2,2,0,0,1,0-2l8.35-15h-18.1l-5.83,20h6.08a2,2,0,0,1,1.84,2.78Z" transform="translate(-1816 -6628)"/>
</svg>
